<?xml version="1.0" encoding="UTF-8"?>
<svg id="Calque_2" data-name="Calque 2" xmlns="http://www.w3.org/2000/svg" viewBox="0 0 76.36 72.34">
  <g id="Calque_1-2" data-name="Calque 1">
    <g>
      <path d="M50.76,31.43c1.42.49,2.82.87,4.14,1.43,4.67,1.98,8.87,4.69,12.29,8.49,2.07,2.29,3.83,4.8,4.44,7.9.23,1.14.28,2.34.22,3.5-.03.59-.44,1.18-.76,1.72-2.03,3.36-4.55,6.3-7.54,8.85-3.42,2.92-7.2,5.25-11.45,6.75-8.29,2.92-16.65,3.03-25.01.37-2.09-.67-4.1-1.6-6.14-2.41-.08-.03-.15-.1-.16-.1,1.7-.69,3.45-1.31,5.11-2.11,3.27-1.57,6.12-3.76,8.71-6.29,7.8-7.6,12.36-17.09,15.85-27.21.08-.23.16-.46.3-.87Z" style="fill: #313131; stroke-width: 0px;"/>
      <path d="M18.81,34.6c-2.95-1.22-5.27-3.18-7.34-5.47-2.16-2.39-3.93-5.04-4.45-8.29-.21-1.28-.12-2.62-.02-3.93.04-.55.33-1.15.68-1.58C13.65,7.78,21.34,2.93,30.78.93c5.85-1.24,11.71-1.28,17.53.14,1.77.43,3.5,1.05,5.27,1.71-13.3,8.77-24.94,19.26-34.77,31.82Z" style="fill: #313131; stroke-width: 0px;"/>
      <path d="M2.89,22.53c.4,1.32.7,2.55,1.15,3.72,1.42,3.65,3.96,6.49,6.85,9.04,5.07,4.47,10.98,7.48,17.28,9.76,2.64.96,5.36,1.71,8.04,2.55.3.09.6.2,1.03.34-.45.83-.83,1.65-1.31,2.39-3.45,5.26-7.81,9.53-13.59,12.18-2.17,1-4.48,1.58-6.89,1.54-.32,0-.69-.1-.93-.28C6.2,57.59,1.27,49.44.19,39.08c-.57-5.45.13-10.74,2.33-15.8.1-.23.22-.46.37-.76Z" style="fill: #313131; stroke-width: 0px;"/>
      <path d="M74.1,48.14c-1.05-5.65-4.18-9.91-8.17-13.65-3.61-3.37-7.74-5.96-12.17-8.1-.24-.12-.47-.24-.77-.4,2.36-6.61,4.7-13.19,7.09-19.89,6,4.25,10.72,9.47,13.49,16.28,3.91,9.58,3.34,18.5.52,25.75Z" style="fill: #313131; stroke-width: 0px;"/>
    </g>
  </g>
</svg>