<?xml version="1.0" encoding="UTF-8"?>
<svg id="Calque_2" data-name="Calque 2" xmlns="http://www.w3.org/2000/svg" width="76.05" height="72.05" viewBox="0 0 76.05 72.05">
  <g id="Calque_1-2" data-name="Calque 1">
    <g>
      <path d="M50.55,31.3c1.42.48,2.81.86,4.12,1.42,4.65,1.98,8.83,4.67,12.24,8.45,2.06,2.29,3.81,4.78,4.42,7.87.23,1.13.28,2.33.22,3.48-.03.58-.43,1.18-.76,1.71-2.02,3.35-4.53,6.28-7.51,8.81-3.41,2.91-7.17,5.23-11.4,6.72-8.26,2.91-16.58,3.02-24.91.36-2.08-.66-4.08-1.59-6.12-2.41-.08-.03-.15-.1-.16-.1,1.69-.69,3.43-1.31,5.09-2.1,3.26-1.56,6.09-3.74,8.68-6.26,7.77-7.57,12.31-17.02,15.79-27.1.08-.23.16-.46.3-.87Z" style="fill: #313131; stroke-width: 0px;"/>
      <path d="M18.73,34.46c-2.93-1.21-5.25-3.17-7.31-5.44-2.15-2.38-3.91-5.02-4.43-8.26-.21-1.27-.12-2.61-.02-3.91.04-.54.33-1.14.68-1.58C13.6,7.75,21.25,2.92,30.65.92c5.82-1.23,11.66-1.28,17.46.14,1.76.43,3.48,1.05,5.25,1.71-13.25,8.73-24.84,19.19-34.63,31.69Z" style="fill: #652bb0; stroke-width: 0px;"/>
      <path d="M2.88,22.44c.4,1.31.7,2.54,1.15,3.71,1.42,3.64,3.95,6.46,6.82,9,5.05,4.45,10.93,7.45,17.21,9.72,2.63.95,5.33,1.7,8,2.54.3.09.6.2,1.02.34-.45.83-.83,1.64-1.31,2.38-3.43,5.24-7.78,9.49-13.53,12.13-2.17,1-4.46,1.57-6.87,1.54-.31,0-.68-.1-.93-.28C6.17,57.36,1.27,49.24.19,38.92c-.57-5.43.13-10.7,2.32-15.73.1-.23.22-.45.37-.75Z" style="fill: #652bb0; stroke-width: 0px;"/>
      <path d="M73.8,47.94c-1.05-5.63-4.16-9.87-8.14-13.59-3.59-3.36-7.71-5.94-12.12-8.07-.24-.12-.47-.24-.76-.39,2.35-6.58,4.68-13.13,7.06-19.81,5.98,4.23,10.67,9.43,13.44,16.22,3.89,9.54,3.33,18.43.52,25.65Z" style="fill: #313131; stroke-width: 0px;"/>
    </g>
  </g>
</svg>