<svg width="31" height="41" viewBox="0 0 31 41" fill="none" xmlns="http://www.w3.org/2000/svg">
<g clip-path="url(#clip0_3_10)">
<path d="M21.1833 8.27829C23.2628 8.27829 24.9486 6.61437 24.9486 4.56181C24.9486 2.50926 23.2628 0.845337 21.1833 0.845337C19.1038 0.845337 17.418 2.50926 17.418 4.56181C17.418 6.61437 19.1038 8.27829 21.1833 8.27829Z" fill="black"/>
<path d="M31 2.80833C29.4783 3.00393 27.4046 4.69451 25.9961 7.83815C24.9557 10.1505 25.3379 10.9049 24.4886 12.1554C23.6605 13.3709 22.4927 13.0496 21.9902 12.854C21.1479 12.5187 19.7183 11.5896 19.0176 10.9888C15.1461 7.65652 14.5587 6.86013 11.7489 4.81327C6.55387 1.01995 1.69862 -0.384207 1.42259 0.0838458C1.13949 0.572856 7.16963 2.47301 12.6406 8.29223C15.8185 11.6664 19.3502 16.5984 20.0509 23.1931C20.2278 24.8278 20.8436 30.64 17.2836 34.6219C12.1877 40.3224 2.19406 38.2057 2.1799 38.8484C2.16575 39.54 13.9925 43.983 22.5705 37.6049C27.539 33.9164 30.2427 27.4754 29.8746 21.9496C29.5349 16.8918 27.8009 15.1034 27.6098 10.7652C27.3904 5.85416 28.6927 5.02983 29.6128 3.99593" fill="#007E83"/>
<path d="M0 19.2391C1.08288 19.3508 2.5621 20.3149 3.56712 22.0963C4.3032 23.4096 4.03425 23.8427 4.64292 24.5483C5.23744 25.2399 6.06553 25.0583 6.41941 24.9465C7.01393 24.7579 8.04018 24.227 8.53562 23.8846C11.2959 21.9915 11.7135 21.5374 13.7164 20.3708C17.411 18.2191 20.8719 17.4227 21.063 17.6882C21.2683 17.9676 16.9721 19.0434 13.0724 22.3547C10.8075 24.2759 8.29498 27.0772 7.79247 30.8286C7.67215 31.7577 7.22626 35.062 9.76712 37.3254C13.3909 40.5669 20.511 39.3653 20.5251 39.7286C20.5322 40.1198 12.1169 42.6487 6.00183 39.023C2.46301 36.9272 0.5379 33.2667 0.799772 30.123C1.04041 27.2518 2.279 26.2319 2.41347 23.7659C2.56918 20.9785 1.64201 20.5035 0.990868 19.9167" fill="black"/>
<path d="M7.43859 21.9635C9.01386 21.9635 10.2909 20.7031 10.2909 19.1482C10.2909 17.5934 9.01386 16.3329 7.43859 16.3329C5.86331 16.3329 4.5863 17.5934 4.5863 19.1482C4.5863 20.7031 5.86331 21.9635 7.43859 21.9635Z" fill="#007E83"/>
</g>
<defs>
<clipPath id="clip0_3_10">
<rect width="31" height="41" fill="white"/>
</clipPath>
</defs>
</svg>
